# xmcd
#
# Track frame offsets:
#	150
#	23874
#	48020
#	64488
#	80711
#	100080
#	119553
#	135629
#	157913
#	171265
#	188518
#	208510
#	226786
#	245595
#	264678
#	285207
#	303228
#	319394
#	334184
#
# Disc length: 4644 seconds
#
# Revision: 0
# Processed by: cddbd v1.5.1PL2 Copyright (c) Steve Scherf et al.
# Submitted via: dBpowerAMP V4.0
#
DISCID=07122213
DTITLE=Randy Travis - Glory Train
DYEAR=1900
DGENRE=Country
TTITLE0=This Train
TTITLE1=Swing Down Chariot
TTITLE2=Precious Memories
TTITLE3=Shout To The Lord
TTITLE4=Down By The Riverside
TTITLE5=Nothing But Blood
TTITLE6=Were You There
TTITLE7=Up Above My Head (I Hear Music In The Air)
TTITLE8=He's Got The Whole World In His Hands
TTITLE9=Heart Of Worship
TTITLE10=Jesus On The Main Line
TTITLE11=Through The Fire
TTITLE12=Here I Am To Worship
TTITLE13=Oh Death
TTITLE14=Nobody Knows, Nobody Cares
TTITLE15=Since Jesus Came Into My Heart
TTITLE16=Oh How I Love Jesus
TTITLE17=Are You Washed In The Blood
TTITLE18=Precious Lord, Take My Hand
EXTD=
EXTT0=
EXTT1=
EXTT2=
EXTT3=
EXTT4=
EXTT5=
EXTT6=
EXTT7=
EXTT8=
EXTT9=
EXTT10=
EXTT11=
EXTT12=
EXTT13=
EXTT14=
EXTT15=
EXTT16=
EXTT17=
EXTT18=
PLAYORDER=
